<?xml version="1.0" encoding="UTF-8"?>
<svg xmlns="http://www.w3.org/2000/svg"
     width="1000"
     height="1000"
     viewBox="0 0 100000 100000">
  <path d="M 98201 50069 L 98201 51291 L 98234 51291 L 98234 52496 L 97862 52496 L 97862 53680 L 97426 53680 L 97426 54964 L 98133 54964 L 98133 56085 L 97239 56085 L 97239 57278 L 97057 57278 L 97057 58605 L 97621 58605 L 97621 59791 L 97303 59791 L 97303 60984 L 97027 60984 L 97027 62208 L 96875 62208 L 96875 63162 L 95751 63162 L 95751 64324 L 95428 64324 L 95428 65552 L 95287 65552 L 95287 66616 L 94668 66616 L 94668 68009 L 94899 68009 L 94899 68903 L 93877 68903 L 93877 69903 L 93154 69903 L 93154 71156 L 92974 71156 L 92974 72053 L 92072 72053 L 92072 73194 L 91647 73194 L 91647 74234 L 91034 74234 L 91034 75373 L 90577 75373 L 90577 76243 L 89695 76243 L 89695 77242 L 89020 77242 L 89020 78420 L 88587 78420 L 88587 79590 L 88114 79590 L 88114 80518 L 87318 80518 L 87318 81145 L 86175 81145 L 86175 82150 L 85483 82150 L 85483 83090 L 84711 83090 L 84711 84054 L 83956 84054 L 83956 84990 L 83166 84990 L 83166 85597 L 82068 85597 L 82068 86091 L 80893 86091 L 80893 87592 L 80563 87592 L 80563 88185 L 79470 88185 L 79470 88625 L 78277 88625 L 78277 89365 L 77315 89365 L 77315 89883 L 76203 89883 L 76203 90666 L 75266 90666 L 75266 91021 L 74069 91021 L 74069 91666 L 73048 91666 L 73048 92224 L 71979 92224 L 71979 92897 L 70966 92897 L 70966 93519 L 69920 93519 L 69920 94338 L 68951 94338 L 68951 94471 L 67690 94471 L 67690 95015 L 66598 95015 L 66598 94997 L 65308 94997 L 65308 95347 L 64156 95347 L 64156 95934 L 63072 95934 L 63072 96304 L 61918 96304 L 61918 96492 L 60718 96492 L 60718 96988 L 59586 96988 L 59586 97678 L 58474 97678 L 58474 96987 L 57129 96987 L 57129 98106 L 56056 98106 L 56056 97987 L 54810 97987 L 54810 98021 L 53587 98021 L 53587 98198 L 52375 98198 L 52375 98123 L 51150 98123 L 51150 97637 L 49931 97637 L 49931 98117 L 48711 98117 L 48711 98320 L 47480 98320 L 47480 98305 L 46251 98305 L 46251 97625 L 45088 97625 L 45088 97954 L 43822 97954 L 43822 97449 L 42661 97449 L 42661 97094 L 41489 97094 L 41489 96721 L 40328 96721 L 40328 96366 L 39170 96366 L 39170 96460 L 37899 96460 L 37899 95941 L 36783 95941 L 36783 95947 L 35511 95947 L 35511 95821 L 34264 95821 L 34264 95451 L 33092 95451 L 33092 94518 L 32143 94518 L 32143 93663 L 31188 93663 L 31188 93305 L 30026 93305 L 30026 92774 L 28941 92774 L 28941 92223 L 27867 92223 L 27867 92286 L 26449 92286 L 26449 91018 L 25774 91018 L 25774 90967 L 24382 90967 L 24382 90058 L 23516 90058 L 23516 88978 L 22787 88978 L 22787 89036 L 21248 89036 L 21248 87783 L 20666 87783 L 20666 87161 L 19610 87161 L 19610 86090 L 18927 86090 L 18927 85644 L 17703 85644 L 17703 84619 L 16997 84619 L 16997 83670 L 16233 83670 L 16233 83072 L 15107 83072 L 15107 81823 L 14674 81823 L 14674 81218 L 13529 81218 L 13529 80262 L 12776 80262 L 12776 79386 L 11923 79386 L 11923 78404 L 11201 78404 L 11201 77496 L 10373 77496 L 10373 76477 L 9699 76477 L 9699 75263 L 9339 75263 L 9339 74480 L 8277 74480 L 8277 73171 L 8111 73171 L 8111 72264 L 7226 72264 L 7226 71062 L 6904 71062 L 6904 69792 L 6759 69792 L 6759 68967 L 5625 68967 L 5625 67661 L 5600 67661 L 5600 66736 L 4610 66736 L 4610 65459 L 4558 65459 L 4558 64448 L 3718 64448 L 3718 63166 L 3733 63166 L 3733 62057 L 3154 62057 L 3154 60868 L 2855 60868 L 2855 59658 L 2655 59658 L 2655 58445 L 2489 58445 L 2489 57190 L 2611 57190 L 2611 56039 L 2029 56039 L 2029 54832 L 1792 54832 L 1792 53597 L 1841 53597 L 1841 52386 L 1574 52386 L 1574 51158 L 1560 51158 L 1560 50063 L 94601 50063 L 94601 48706 L 1675 48706 L 1675 47488 L 1843 47488 L 1843 46312 L 2476 46312 L 2476 45070 L 2209 45070 L 2209 43876 L 2460 43876 L 2460 42590 L 2094 42590 L 2094 41447 L 2672 41447 L 2672 40183 L 2576 40183 L 2576 39124 L 3437 39124 L 3437 37782 L 3089 37782 L 3089 36815 L 4170 36815 L 4170 35578 L 4266 35578 L 4266 34540 L 4981 34540 L 4981 33110 L 4596 33110 L 4596 31987 L 5092 31987 L 5092 30938 L 5756 30938 L 5756 29836 L 6281 29836 L 6281 28764 L 6865 28764 L 6865 27628 L 7321 27628 L 7321 26511 L 7824 26511 L 7824 25702 L 8859 25702 L 8859 24579 L 9346 24579 L 9346 23540 L 9977 23540 L 9977 22649 L 10824 22649 L 10824 21328 L 11071 21328 L 11071 20465 L 11957 20465 L 11957 19688 L 12934 19688 L 12934 18858 L 13829 18858 L 13829 17605 L 14247 17605 L 14247 17184 L 15577 17184 L 15577 15908 L 16006 15908 L 16006 15523 L 17321 15523 L 17321 14286 L 17826 14286 L 17826 13447 L 18711 13447 L 18711 12439 L 19462 12439 L 19462 11795 L 20514 11795 L 20514 11383 L 21728 11383 L 21728 10177 L 22367 10177 L 22367 10030 L 23739 10030 L 23739 8944 L 24491 8944 L 24491 8323 L 25546 8323 L 25546 7927 L 26726 7927 L 26726 7454 L 27853 7454 L 27853 6533 L 28755 6533 L 28755 6357 L 30023 6357 L 30023 6315 L 31327 6315 L 31327 5328 L 32230 5328 L 32230 5210 L 33484 5210 L 33484 4188 L 34414 4188 L 34414 4305 L 35735 4305 L 35735 3569 L 36786 3569 L 36786 3893 L 38132 3893 L 38132 3066 L 39179 3066 L 39179 2631 L 40336 2631 L 40336 3033 L 41651 3033 L 41651 2365 L 42772 2365 L 42772 2357 L 44001 2357 L 44001 1757 L 45164 1757 L 45164 1784 L 46397 1784 L 46397 2098 L 47639 2098 L 47639 2091 L 48854 2091 L 48854 2492 L 50068 2492 L 50068 2437 L 51273 2437 L 51273 1716 L 52518 1716 L 52518 1836 L 53737 1836 L 53737 2314 L 54918 2314 L 54918 2630 L 56101 2630 L 56101 2930 L 57279 2930 L 57279 2390 L 58603 2390 L 58603 2671 L 59796 2671 L 59796 3323 L 60901 3323 L 60901 3234 L 62180 3234 L 62180 3750 L 63305 3750 L 63305 4270 L 64419 4270 L 64419 4920 L 65480 4920 L 65480 5164 L 66678 5164 L 66678 5132 L 67997 5132 L 67997 6372 L 68795 6372 L 68795 6101 L 70246 6101 L 70246 6487 L 71421 6487 L 71421 7318 L 72372 7318 L 72372 7635 L 73593 7635 L 73593 9018 L 74203 9018 L 74203 9124 L 75559 9124 L 75559 9646 L 76678 9646 L 76678 10393 L 77651 10393 L 77651 11686 L 78218 11686 L 78218 12340 L 79237 12340 L 79237 12512 L 80656 12512 L 80656 13724 L 81231 13724 L 81231 14301 L 82345 14301 L 82345 15071 L 83297 15071 L 83297 16144 L 83952 16144 L 83952 17040 L 84772 17040 L 84772 17542 L 86028 17542 L 86028 19002 L 86212 19002 L 86212 19957 L 86952 19957 L 86952 20594 L 88101 20594 L 88101 21560 L 88845 21560 L 88845 22490 L 89645 22490 L 89645 23588 L 90200 23588 L 90200 24451 L 91119 24451 L 91119 25749 L 91331 25749 L 91331 26959 L 91651 26959 L 91651 27880 L 92493 27880 L 92493 28819 L 93336 28819 L 93336 30053 L 93576 30053 L 93576 31030 L 94378 31030 L 94378 32279 L 94546 32279 L 94546 33316 L 95246 33316 L 95246 34695 L 94986 34695 L 94986 35588 L 96164 35588 L 96164 36850 L 96204 36850 L 96204 37963 L 96762 37963 L 96762 39298 L 96420 39298 L 96420 40378 L 97159 40378 L 97159 41646 L 96996 41646 L 96996 42832 L 97242 42832 L 97242 44065 L 97132 44065 L 97132 45225 L 97634 45225 L 97634 46413 L 98004 46413 L 98004 47660 L 97467 47660 L 97467 48854 L 97897 48854 L 97897 50069 L 98201 50069"
        fill="none"
        stroke="black"
        stroke-width="20" />
  <rect x="5600"
        y="50063"
        width="89001"
        height="17598"
        fill="black"
        fill-opacity="0.2"
        stroke-width="0" />
</svg>
